#!OML:ASF X:\für Bonn\!DataBase\2005_08_10_Bjorn_Final\c3d\bjorn.ASF
:FULLY-SPECIFIED
:DEGREES
142
root 1.32338 18.9495 2.75779 -180.214 7.8596 -192.784
lowerback 4.95964 -2.79815 12.6027
upperback 12.3374 -2.13816 1.70693
thorax 10.1312 0.817366 -5.06694
lowerneck -3.21432 6.33627 -1.79772
upperneck 9.19493 12.8954 -20.5559
head 4.60078 6.20099 -5.2877
rclavicle -1.43125e-014 -4.77083e-014
rhumerus -34.0017 -12.2882 -83.716
rradius 40.8851
rwrist -6.25699
rhand -9.95518 13.3631
rfingers 7.12502
rthumb 16.0268 -15.994
lclavicle -1.43125e-014 -4.77083e-014
lhumerus -20.6458 -31.3346 63.9009
lradius 79.4354
lwrist -28.7493
lhand -48.6293 -29.4194
lfingers 7.12502
lthumb -21.273 -0.566863
rfemur -19.907 3.19891 5.74339
rtibia 41.0971
rfoot -19.5877 13.7652
rtoes -12.4672
lfemur -22.5556 -1.15845 -29.5852
ltibia 52.6336
lfoot -23.2298 4.18688
ltoes -21.3987
143
root 1.33992 18.9579 2.76392 -180.233 7.81025 -192.158
lowerback 4.89509 -2.72529 12.4934
upperback 12.2846 -2.06373 1.74811
thorax 10.1228 0.832472 -4.96353
lowerneck -2.96223 6.23171 -1.73102
upperneck 9.19855 12.6355 -20.2439
head 4.51002 6.08465 -5.23261
rclavicle -4.13472e-014 -5.725e-014
rhumerus -33.6444 -11.839 -83.8961
rradius 41.4666
rwrist -6.0676
rhand -10.0902 13.4743
rfingers 7.12502
rthumb 15.8967 -15.8932
lclavicle -4.13472e-014 -5.725e-014
lhumerus -21.5441 -32.683 65.1159
lradius 78.4739
lwrist -27.1947
lhand -48.0651 -29.4614
lfingers 7.12502
lthumb -20.731 -0.548681
rfemur -19.6665 2.86298 6.48663
rtibia 40.83
rfoot -19.3169 14.128
rtoes -12.2404
lfemur -22.5784 -1.18182 -29.3246
ltibia 53.0323
lfoot -23.4377 4.94381
ltoes -22.2919
144
root 1.357 18.9649 2.76872 -180.28 7.77958 -191.551
lowerback 4.80979 -2.64033 12.3479
upperback 12.2567 -1.97385 1.77965
thorax 10.1579 0.857244 -4.84978
lowerneck -2.74747 6.11546 -1.63196
upperneck 9.21679 12.3612 -19.9265
head 4.43122 5.95774 -5.17964
rclavicle 5.40694e-014 1.17681e-013
rhumerus -33.2924 -11.4555 -84.0441
rradius 42.082
rwrist -6.02789
rhand -10.1355 13.5309
rfingers 7.12502
rthumb 15.8531 -15.8401
lclavicle 5.40694e-014 1.17681e-013
lhumerus -22.4218 -33.9953 66.3356
lradius 77.5909
lwrist -25.3879
lhand -47.2412 -29.3634
lfingers 7.12502
lthumb -19.9391 -0.36632
rfemur -19.4074 2.53499 7.20483
rtibia 40.5797
rfoot -19.0421 14.5388
rtoes -11.8136
lfemur -22.5206 -1.2101 -29.0359
ltibia 53.4317
lfoot -23.6838 5.67466
ltoes -22.9792
145
root 1.37565 18.9693 2.77335 -180.368 7.74342 -190.968
lowerback 4.73261 -2.55734 12.1428
upperback 12.2487 -1.88182 1.78811
thorax 10.2103 0.88168 -4.72758
lowerneck -2.62346 5.99779 -1.49728
upperneck 9.32068 12.0966 -19.5624
head 4.39515 5.82366 -5.11192
rclavicle 0 -4.45278e-014
rhumerus -32.9378 -11.138 -84.1966
rradius 42.7162
rwrist -6.15962
rhand -10.1143 13.5606
rfingers 7.12502
rthumb 15.8736 -15.8087
lclavicle 0 -4.45278e-014
lhumerus -23.324 -35.263 67.5302
lradius 76.815
lwrist -23.3352
lhand -46.1666 -29.0727
lfingers 7.12502
lthumb -18.9059 0.0285531
rfemur -19.1164 2.16879 7.9022
rtibia 40.3571
rfoot -18.8017 14.9474
rtoes -11.5729
lfemur -22.3709 -1.23046 -28.7132
ltibia 53.8254
lfoot -23.976 6.24943
ltoes -23.2782
146
root 1.39443 18.9719 2.77786 -180.49 7.71782 -190.415
lowerback 4.69114 -2.47144 11.9008
upperback 12.2314 -1.78046 1.78277
thorax 10.2309 0.904737 -4.5996
lowerneck -2.48976 5.87899 -1.37315
upperneck 9.43708 11.8209 -19.142
head 4.3568 5.68398 -5.02568
rclavicle 7.95139e-015 -3.18055e-015
rhumerus -32.633 -10.9031 -84.3009
rradius 43.3374
rwrist -6.31839
rhand -10.0176 13.5717
rfingers 7.12502
rthumb 15.9667 -15.7903
lclavicle 7.95139e-015 -3.18055e-015
lhumerus -24.3049 -36.4845 68.7428
lradius 76.1546
lwrist -21.1523
lhand -44.8857 -28.5089
lfingers 7.12502
lthumb -17.6737 0.707837
rfemur -18.8057 1.79384 8.56548
rtibia 40.1558
rfoot -18.5612 15.3978
rtoes -11.2463
lfemur -22.1525 -1.2394 -28.3814
ltibia 54.2114
lfoot -24.3277 6.73662
ltoes -23.2359
147
root 1.41455 18.9736 2.78146 -180.62 7.69895 -189.827
lowerback 4.64742 -2.37646 11.6574
upperback 12.2072 -1.66818 1.79508
thorax 10.2466 0.931141 -4.45128
lowerneck -2.32749 5.74108 -1.2403
upperneck 9.56769 11.5242 -18.7225
head 4.31744 5.53661 -4.94324
rclavicle 2.54444e-014 8.5875e-014
rhumerus -32.3722 -10.6689 -84.3833
rradius 43.9698
rwrist -6.60115
rhand -9.92652 13.5161
rfingers 7.12502
rthumb 16.0544 -15.8388
lclavicle 2.54444e-014 8.5875e-014
lhumerus -25.3405 -37.6455 69.9938
lradius 75.5951
lwrist -18.8112
lhand -43.4079 -27.6419
lfingers 7.12502
lthumb -16.2512 1.69702
rfemur -18.4935 1.38392 9.26418
rtibia 39.9815
rfoot -18.3078 15.9008
rtoes -10.8741
lfemur -21.8826 -1.1982 -27.9555
ltibia 54.5843
lfoot -24.6186 7.17622
ltoes -23.1046
148
root 1.43504 18.9727 2.78543 -180.763 7.69115 -189.251
lowerback 4.61284 -2.29094 11.3585
upperback 12.1921 -1.56537 1.81701
thorax 10.2644 0.948418 -4.26156
lowerneck -2.223 5.61111 -1.13929
upperneck 9.73967 11.2482 -18.2683
head 4.30056 5.39362 -4.84029
rclavicle 3.81667e-014 5.08889e-014
rhumerus -32.0834 -10.4411 -84.4384
rradius 44.5666
rwrist -6.83782
rhand -9.82228 13.4224
rfingers 7.12502
rthumb 16.1548 -15.9243
lclavicle 3.81667e-014 5.08889e-014
lhumerus -26.4397 -38.6564 71.2993
lradius 75.1194
lwrist -16.4451
lhand -41.8286 -26.4704
lfingers 7.12502
lthumb -14.73 2.98626
rfemur -18.18 0.942299 9.95116
rtibia 39.829
rfoot -18.0716 16.4328
rtoes -10.5141
lfemur -21.5645 -1.13311 -27.4985
ltibia 54.9404
lfoot -24.7774 7.77654
ltoes -23.7256
149
root 1.45814 18.9717 2.78726 -180.886 7.69338 -188.694
lowerback 4.509 -2.18501 11.0006
upperback 12.1755 -1.44905 1.84365
thorax 10.3228 0.966388 -4.03444
lowerneck -2.07197 5.47359 -1.00776
upperneck 9.88408 10.9545 -17.8274
head 4.26896 5.24785 -4.7493
rclavicle -4.6118e-014 -4.45278e-014
rhumerus -31.8197 -10.1906 -84.4831
rradius 45.1341
rwrist -7.07047
rhand -9.77013 13.3544
rfingers 7.12502
rthumb 16.205 -15.9883
lclavicle -4.6118e-014 -4.45278e-014
lhumerus -27.5812 -39.5986 72.6194
lradius 74.7505
lwrist -13.9875
lhand -40.0806 -24.8476
lfingers 7.12502
lthumb -13.0455 4.72441
rfemur -17.9016 0.475532 10.615
rtibia 39.702
rfoot -17.8451 16.9865
rtoes -10.159
lfemur -21.2309 -1.03842 -27.0272
ltibia 55.2704
lfoot -24.8391 8.44729
ltoes -24.5337
150
root 1.48176 18.968 2.78745 -181.002 7.6899 -188.133
lowerback 4.38113 -2.08406 10.6276
upperback 12.1456 -1.34524 1.88096
thorax 10.3773 0.973826 -3.7882
lowerneck -1.90351 5.33585 -0.916306
upperneck 10.0417 10.6597 -17.3422
head 4.23538 5.10256 -4.63825
rclavicle 4.77083e-014 1.47896e-013
rhumerus -31.5678 -9.86093 -84.5202
rradius 45.6369
rwrist -7.2556
rhand -9.82487 13.2822
rfingers 7.12502
rthumb 16.1523 -16.0647
lclavicle 4.77083e-014 1.47896e-013
lhumerus -28.7663 -40.3092 74.0049
lradius 74.3432
lwrist -11.4988
lhand -37.9267 -22.8855
lfingers 7.12502
lthumb -10.9686 6.808
rfemur -17.6416 -0.089272 11.2699
rtibia 39.5991
rfoot -17.563 17.6534
rtoes -9.5311
lfemur -20.8663 -0.913877 -26.5182
ltibia 55.5714
lfoot -24.8476 9.05578
ltoes -25.0938
151
root 1.50535 18.9639 2.7861 -181.119 7.66981 -187.56
lowerback 4.21251 -1.98367 10.2705
upperback 12.1351 -1.24444 1.92161
thorax 10.4776 0.985264 -3.54592
lowerneck -1.76307 5.18857 -0.80835
upperneck 10.1905 10.3525 -16.8642
head 4.20564 4.95121 -4.53133
rclavicle 3.33958e-014 7.15625e-014
rhumerus -31.2866 -9.52287 -84.5511
rradius 46.0295
rwrist -7.32544
rhand -9.99934 13.2699
rfingers 7.12502
rthumb 15.9843 -16.0906
lclavicle 3.33958e-014 7.15625e-014
lhumerus -29.8729 -40.9026 75.3488
lradius 73.982
lwrist -8.96883
lhand -35.3744 -20.6008
lfingers 7.12502
lthumb -8.50608 9.20787
rfemur -17.3866 -0.782064 11.9286
rtibia 39.5211
rfoot -17.2806 18.4097
rtoes -9.0699
lfemur -20.4577 -0.802477 -25.9583
ltibia 55.8327
lfoot -24.8616 9.49393
ltoes -25.0307
152
root 1.5295 18.9574 2.78291 -181.234 7.66059 -186.967
lowerback 4.02928 -1.88253 9.92308
upperback 12.1037 -1.14776 1.96828
thorax 10.5615 0.991322 -3.30304
lowerneck -1.4982 5.0405 -0.670832
upperneck 10.2762 10.0319 -16.4125
head 4.13807 4.805 -4.44268
rclavicle -5.56597e-015 -5.88403e-014
rhumerus -31.0418 -9.173 -84.557
rradius 46.3116
rwrist -7.24497
rhand -10.1828 13.233
rfingers 7.12502
rthumb 15.8076 -16.1416
lclavicle -5.56597e-015 -5.88403e-014
lhumerus -31.0626 -41.3173 76.6982
lradius 73.7308
lwrist -6.49854
lhand -32.4537 -18.1299
lfingers 7.12502
lthumb -5.68681 11.7738
rfemur -17.1415 -1.57756 12.5976
rtibia 39.466
rfoot -16.981 19.2818
rtoes -8.54312
lfemur -19.9998 -0.674905 -25.3308
ltibia 56.0504
lfoot -24.9024 9.67856
ltoes -24.2876
153
root 1.55406 18.9495 2.7772 -181.344 7.68008 -186.391
lowerback 3.81132 -1.77138 9.57759
upperback 12.0745 -1.04213 1.99125
thorax 10.6691 1.0029 -3.08604
lowerneck -1.24486 4.90872 -0.51057
upperneck 10.3456 9.72478 -15.9364
head 4.06993 4.66555 -4.34843
rclavicle -3.97569e-015 -3.18055e-014
rhumerus -30.7724 -8.82699 -84.5865
rradius 46.5451
rwrist -7.18046
rhand -10.3373 13.0491
rfingers 7.12502
rthumb 15.6588 -16.3372
lclavicle -3.97569e-015 -3.18055e-014
lhumerus -32.2249 -41.6298 78.0118
lradius 73.5073
lwrist -3.87315
lhand -29.3546 -15.7193
lfingers 7.12502
lthumb -2.69422 14.2434
rfemur -16.9205 -2.46685 13.2324
rtibia 39.4318
rfoot -16.6155 20.2751
rtoes -7.80768
lfemur -19.5087 -0.548556 -24.691
ltibia 56.2222
lfoot -24.9639 9.73943
ltoes -23.1768
154
root 1.57797 18.9409 2.7693 -181.454 7.71846 -185.801
lowerback 3.56606 -1.67931 9.25507
upperback 12.0638 -0.961921 2.01914
thorax 10.8113 1.00715 -2.87591
lowerneck -1.01477 4.78761 -0.37327
upperneck 10.4016 9.44285 -15.4886
head 4.00599 4.53776 -4.25634
rclavicle -2.54444e-014 -3.33958e-014
rhumerus -30.4838 -8.37292 -84.5978
rradius 46.8081
rwrist -7.10276
rhand -10.3904 12.811
rfingers 7.12502
rthumb 15.6077 -16.5793
lclavicle -2.54444e-014 -3.33958e-014
lhumerus -33.3804 -41.7801 79.3305
lradius 73.3266
lwrist -1.04804
lhand -26.3841 -13.3995
lfingers 7.12502
lthumb 0.174799 16.5801
rfemur -16.7013 -3.4219 13.8671
rtibia 39.4168
rfoot -16.2556 21.3516
rtoes -7.08943
lfemur -18.9718 -0.400557 -24.0046
ltibia 56.3524
lfoot -25.0452 9.62186
ltoes -21.6696
